<mxfile host="app.diagrams.net" agent="Mozilla/5.0 (Macintosh; Intel Mac OS X 10_15_7) AppleWebKit/537.36 (KHTML, like Gecko) Chrome/130.0.0.0 Safari/537.36" version="24.8.3">
  <diagram name="Page-1" id="UsTCwL_ypoZKA67h1_Xz">
    <mxGraphModel dx="1008" dy="605" grid="1" gridSize="10" guides="1" tooltips="1" connect="1" arrows="1" fold="1" page="1" pageScale="1" pageWidth="827" pageHeight="1169" math="0" shadow="0">
      <root>
        <mxCell id="0" />
        <mxCell id="1" parent="0" />
        <mxCell id="mv9SUi-fLaxSLL_trrdY-72" value="" style="rounded=1;whiteSpace=wrap;html=1;" vertex="1" parent="1">
          <mxGeometry x="680" y="4500" width="250" height="380" as="geometry" />
        </mxCell>
        <mxCell id="mv9SUi-fLaxSLL_trrdY-49" value="" style="rounded=1;whiteSpace=wrap;html=1;" vertex="1" parent="1">
          <mxGeometry x="1120" y="4010" width="190" height="190" as="geometry" />
        </mxCell>
        <mxCell id="mv9SUi-fLaxSLL_trrdY-33" value="" style="rounded=0;whiteSpace=wrap;html=1;fillColor=#FFCCCC;" vertex="1" parent="1">
          <mxGeometry x="480" y="4010" width="240" height="230" as="geometry" />
        </mxCell>
        <mxCell id="UCrom2D8WkOXHMuSKfqL-1" value="" style="rounded=0;whiteSpace=wrap;html=1;" parent="1" vertex="1">
          <mxGeometry x="280" y="110" width="320" height="440" as="geometry" />
        </mxCell>
        <mxCell id="UCrom2D8WkOXHMuSKfqL-2" value="" style="rounded=0;whiteSpace=wrap;html=1;" parent="1" vertex="1">
          <mxGeometry x="50" y="120" width="120" height="60" as="geometry" />
        </mxCell>
        <mxCell id="UCrom2D8WkOXHMuSKfqL-3" value="" style="rounded=0;whiteSpace=wrap;html=1;" parent="1" vertex="1">
          <mxGeometry x="720" y="100" width="120" height="50" as="geometry" />
        </mxCell>
        <mxCell id="UCrom2D8WkOXHMuSKfqL-4" value="" style="rounded=0;whiteSpace=wrap;html=1;" parent="1" vertex="1">
          <mxGeometry x="760" y="570" width="100" height="60" as="geometry" />
        </mxCell>
        <mxCell id="UCrom2D8WkOXHMuSKfqL-5" value="" style="rounded=0;whiteSpace=wrap;html=1;" parent="1" vertex="1">
          <mxGeometry x="310" y="140" width="120" height="60" as="geometry" />
        </mxCell>
        <mxCell id="UCrom2D8WkOXHMuSKfqL-6" value="" style="rounded=0;whiteSpace=wrap;html=1;" parent="1" vertex="1">
          <mxGeometry x="440" y="220" width="120" height="60" as="geometry" />
        </mxCell>
        <mxCell id="UCrom2D8WkOXHMuSKfqL-8" value="" style="rounded=0;whiteSpace=wrap;html=1;" parent="1" vertex="1">
          <mxGeometry x="294" y="450" width="120" height="60" as="geometry" />
        </mxCell>
        <mxCell id="UCrom2D8WkOXHMuSKfqL-9" value="" style="rounded=0;whiteSpace=wrap;html=1;" parent="1" vertex="1">
          <mxGeometry x="470" y="340" width="120" height="60" as="geometry" />
        </mxCell>
        <mxCell id="UCrom2D8WkOXHMuSKfqL-10" value="Text" style="text;html=1;align=center;verticalAlign=middle;whiteSpace=wrap;rounded=0;" parent="1" vertex="1">
          <mxGeometry x="320" y="465" width="60" height="30" as="geometry" />
        </mxCell>
        <mxCell id="UCrom2D8WkOXHMuSKfqL-11" value="&lt;h1 style=&quot;margin-top: 0px;&quot;&gt;Heading&lt;/h1&gt;&lt;p&gt;Lorem ipsum dolor sit amet, consectetur adipisicing elit, sed do eiusmod tempor incididunt ut labore et dolore magna aliqua.&lt;/p&gt;" style="text;html=1;whiteSpace=wrap;overflow=hidden;rounded=0;" parent="1" vertex="1">
          <mxGeometry x="300" y="230" width="130" height="150" as="geometry" />
        </mxCell>
        <mxCell id="UCrom2D8WkOXHMuSKfqL-12" value="" style="shape=process;whiteSpace=wrap;html=1;backgroundOutline=1;" parent="1" vertex="1">
          <mxGeometry x="460" y="440" width="120" height="60" as="geometry" />
        </mxCell>
        <mxCell id="UCrom2D8WkOXHMuSKfqL-13" value="Text" style="text;html=1;align=center;verticalAlign=middle;whiteSpace=wrap;rounded=0;" parent="1" vertex="1">
          <mxGeometry x="490" y="455" width="60" height="30" as="geometry" />
        </mxCell>
        <mxCell id="UCrom2D8WkOXHMuSKfqL-14" value="Text" style="text;html=1;align=center;verticalAlign=middle;whiteSpace=wrap;rounded=0;" parent="1" vertex="1">
          <mxGeometry x="335" y="155" width="60" height="30" as="geometry" />
        </mxCell>
        <mxCell id="UCrom2D8WkOXHMuSKfqL-15" value="Text" style="text;html=1;align=center;verticalAlign=middle;whiteSpace=wrap;rounded=0;" parent="1" vertex="1">
          <mxGeometry x="470" y="235" width="60" height="30" as="geometry" />
        </mxCell>
        <mxCell id="Q_uGmFE6A_lky6wGwxcI-1" value="" style="rounded=0;whiteSpace=wrap;html=1;" parent="1" vertex="1">
          <mxGeometry x="210" y="600" width="460" height="580" as="geometry" />
        </mxCell>
        <mxCell id="Q_uGmFE6A_lky6wGwxcI-2" value="el-2" style="rounded=0;whiteSpace=wrap;html=1;" parent="1" vertex="1">
          <mxGeometry x="370" y="1220" width="210" height="300" as="geometry" />
        </mxCell>
        <mxCell id="Q_uGmFE6A_lky6wGwxcI-4" value="" style="endArrow=none;html=1;rounded=0;entryX=0.891;entryY=0.207;entryDx=0;entryDy=0;entryPerimeter=0;" parent="1" source="Q_uGmFE6A_lky6wGwxcI-3" edge="1">
          <mxGeometry width="50" height="50" relative="1" as="geometry">
            <mxPoint x="44.07" y="770" as="sourcePoint" />
            <mxPoint x="663.9300000000002" y="780.06" as="targetPoint" />
          </mxGeometry>
        </mxCell>
        <mxCell id="Q_uGmFE6A_lky6wGwxcI-5" value="" style="endArrow=none;html=1;rounded=0;exitX=0.152;exitY=0.672;exitDx=0;exitDy=0;exitPerimeter=0;" parent="1" edge="1">
          <mxGeometry width="50" height="50" relative="1" as="geometry">
            <mxPoint x="335.00000000000006" y="1059.76" as="sourcePoint" />
            <mxPoint x="345.08" y="606" as="targetPoint" />
          </mxGeometry>
        </mxCell>
        <mxCell id="Q_uGmFE6A_lky6wGwxcI-6" value="" style="endArrow=none;html=1;rounded=0;entryX=0.891;entryY=0.207;entryDx=0;entryDy=0;entryPerimeter=0;" parent="1" target="Q_uGmFE6A_lky6wGwxcI-3" edge="1">
          <mxGeometry width="50" height="50" relative="1" as="geometry">
            <mxPoint x="44.07" y="770" as="sourcePoint" />
            <mxPoint x="663.9300000000002" y="780.06" as="targetPoint" />
          </mxGeometry>
        </mxCell>
        <mxCell id="Q_uGmFE6A_lky6wGwxcI-3" value="el-1" style="rounded=0;whiteSpace=wrap;html=1;" parent="1" vertex="1">
          <mxGeometry x="275" y="760" width="120" height="60" as="geometry" />
        </mxCell>
        <mxCell id="Q_uGmFE6A_lky6wGwxcI-7" value="" style="rounded=0;whiteSpace=wrap;html=1;" parent="1" vertex="1">
          <mxGeometry x="250" y="1620" width="380" height="250" as="geometry" />
        </mxCell>
        <mxCell id="Q_uGmFE6A_lky6wGwxcI-8" value="" style="rounded=0;whiteSpace=wrap;html=1;" parent="1" vertex="1">
          <mxGeometry x="640" y="1739" width="40" height="30" as="geometry" />
        </mxCell>
        <mxCell id="Q_uGmFE6A_lky6wGwxcI-9" value="" style="rounded=0;whiteSpace=wrap;html=1;" parent="1" vertex="1">
          <mxGeometry x="180" y="1739" width="40" height="30" as="geometry" />
        </mxCell>
        <mxCell id="Q_uGmFE6A_lky6wGwxcI-10" value="" style="rounded=0;whiteSpace=wrap;html=1;" parent="1" vertex="1">
          <mxGeometry x="650" y="1510" width="120" height="60" as="geometry" />
        </mxCell>
        <mxCell id="Q_uGmFE6A_lky6wGwxcI-11" value="" style="rounded=0;whiteSpace=wrap;html=1;" parent="1" vertex="1">
          <mxGeometry x="290" y="1640" width="120" height="60" as="geometry" />
        </mxCell>
        <mxCell id="Q_uGmFE6A_lky6wGwxcI-12" value="el-1" style="rounded=0;whiteSpace=wrap;html=1;" parent="1" vertex="1">
          <mxGeometry x="690" y="1180" width="120" height="60" as="geometry" />
        </mxCell>
        <mxCell id="Q_uGmFE6A_lky6wGwxcI-13" value="" style="rounded=0;whiteSpace=wrap;html=1;" parent="1" vertex="1">
          <mxGeometry x="50" y="1240" width="250" height="220" as="geometry" />
        </mxCell>
        <mxCell id="Q_uGmFE6A_lky6wGwxcI-14" value="" style="rounded=0;whiteSpace=wrap;html=1;" parent="1" vertex="1">
          <mxGeometry x="60" y="1390" width="230" height="60" as="geometry" />
        </mxCell>
        <mxCell id="Q_uGmFE6A_lky6wGwxcI-15" value="" style="rounded=0;whiteSpace=wrap;html=1;" parent="1" vertex="1">
          <mxGeometry x="60" y="1310" width="230" height="70" as="geometry" />
        </mxCell>
        <mxCell id="Q_uGmFE6A_lky6wGwxcI-16" value="" style="rounded=0;whiteSpace=wrap;html=1;" parent="1" vertex="1">
          <mxGeometry x="60" y="1460" width="230" height="60" as="geometry" />
        </mxCell>
        <mxCell id="Z8KsumqVPq9Zf88c6hHL-5" style="edgeStyle=orthogonalEdgeStyle;rounded=0;orthogonalLoop=1;jettySize=auto;html=1;entryX=0;entryY=0.5;entryDx=0;entryDy=0;" parent="1" source="Z8KsumqVPq9Zf88c6hHL-1" target="Z8KsumqVPq9Zf88c6hHL-2" edge="1">
          <mxGeometry relative="1" as="geometry" />
        </mxCell>
        <mxCell id="Z8KsumqVPq9Zf88c6hHL-1" value="Client Side" style="rounded=0;whiteSpace=wrap;html=1;" parent="1" vertex="1">
          <mxGeometry x="17.5" y="2150" width="142.5" height="90" as="geometry" />
        </mxCell>
        <mxCell id="Z8KsumqVPq9Zf88c6hHL-6" style="edgeStyle=orthogonalEdgeStyle;rounded=0;orthogonalLoop=1;jettySize=auto;html=1;exitX=0.5;exitY=1;exitDx=0;exitDy=0;entryX=0.5;entryY=0;entryDx=0;entryDy=0;" parent="1" source="Z8KsumqVPq9Zf88c6hHL-2" target="Z8KsumqVPq9Zf88c6hHL-4" edge="1">
          <mxGeometry relative="1" as="geometry" />
        </mxCell>
        <mxCell id="Z8KsumqVPq9Zf88c6hHL-2" value="DOM resource capture" style="rounded=1;whiteSpace=wrap;html=1;" parent="1" vertex="1">
          <mxGeometry x="310" y="2050" width="180" height="80" as="geometry" />
        </mxCell>
        <mxCell id="Z8KsumqVPq9Zf88c6hHL-9" style="edgeStyle=orthogonalEdgeStyle;rounded=0;orthogonalLoop=1;jettySize=auto;html=1;exitX=1;exitY=0.5;exitDx=0;exitDy=0;entryX=0;entryY=0.5;entryDx=0;entryDy=0;" parent="1" source="Z8KsumqVPq9Zf88c6hHL-3" target="Z8KsumqVPq9Zf88c6hHL-8" edge="1">
          <mxGeometry relative="1" as="geometry" />
        </mxCell>
        <mxCell id="Z8KsumqVPq9Zf88c6hHL-3" value="Resurrection" style="rounded=1;whiteSpace=wrap;html=1;" parent="1" vertex="1">
          <mxGeometry x="570" y="2200" width="160" height="90" as="geometry" />
        </mxCell>
        <mxCell id="Z8KsumqVPq9Zf88c6hHL-7" style="edgeStyle=orthogonalEdgeStyle;rounded=0;orthogonalLoop=1;jettySize=auto;html=1;entryX=0;entryY=0.5;entryDx=0;entryDy=0;" parent="1" source="Z8KsumqVPq9Zf88c6hHL-4" target="Z8KsumqVPq9Zf88c6hHL-3" edge="1">
          <mxGeometry relative="1" as="geometry" />
        </mxCell>
        <mxCell id="Z8KsumqVPq9Zf88c6hHL-4" value="AWS" style="shape=process;whiteSpace=wrap;html=1;backgroundOutline=1;" parent="1" vertex="1">
          <mxGeometry x="365" y="2260" width="70" height="98" as="geometry" />
        </mxCell>
        <mxCell id="Z8KsumqVPq9Zf88c6hHL-8" value="Webpage Re-Creation (PERCY)" style="rounded=1;whiteSpace=wrap;html=1;" parent="1" vertex="1">
          <mxGeometry x="810" y="2110" width="160" height="80" as="geometry" />
        </mxCell>
        <mxCell id="lqUyNGg2WOlTrXvAniyv-1" value="" style="rounded=0;whiteSpace=wrap;html=1;" parent="1" vertex="1">
          <mxGeometry x="80" y="2450" width="160" height="490" as="geometry" />
        </mxCell>
        <mxCell id="lqUyNGg2WOlTrXvAniyv-2" value="" style="rounded=0;whiteSpace=wrap;html=1;" parent="1" vertex="1">
          <mxGeometry x="470" y="2450" width="180" height="60" as="geometry" />
        </mxCell>
        <mxCell id="lqUyNGg2WOlTrXvAniyv-3" value="" style="rounded=0;whiteSpace=wrap;html=1;" parent="1" vertex="1">
          <mxGeometry x="470" y="2540" width="180" height="60" as="geometry" />
        </mxCell>
        <mxCell id="lqUyNGg2WOlTrXvAniyv-4" value="" style="rounded=0;whiteSpace=wrap;html=1;" parent="1" vertex="1">
          <mxGeometry x="470" y="2630" width="180" height="60" as="geometry" />
        </mxCell>
        <mxCell id="lqUyNGg2WOlTrXvAniyv-5" value="" style="rounded=0;whiteSpace=wrap;html=1;" parent="1" vertex="1">
          <mxGeometry x="470" y="2878" width="180" height="62" as="geometry" />
        </mxCell>
        <mxCell id="lqUyNGg2WOlTrXvAniyv-6" value="[&lt;div&gt;{&lt;/div&gt;&lt;div&gt;url,&lt;/div&gt;&lt;div&gt;folderToSaveResult&lt;br&gt;&lt;div&gt;},&lt;/div&gt;&lt;div&gt;{&lt;/div&gt;&lt;div&gt;&lt;div&gt;{&lt;/div&gt;&lt;div&gt;url,&lt;/div&gt;&lt;div&gt;folderToSaveResult&lt;br&gt;&lt;div&gt;}&lt;/div&gt;&lt;/div&gt;&lt;/div&gt;&lt;div&gt;}.&lt;br&gt;{&lt;/div&gt;&lt;div&gt;}&lt;/div&gt;&lt;div&gt;]&lt;/div&gt;&lt;/div&gt;" style="rounded=0;whiteSpace=wrap;html=1;" parent="1" vertex="1">
          <mxGeometry x="770" y="2580" width="120" height="230" as="geometry" />
        </mxCell>
        <mxCell id="lqUyNGg2WOlTrXvAniyv-7" value="2 minutes" style="text;html=1;align=center;verticalAlign=middle;whiteSpace=wrap;rounded=0;" parent="1" vertex="1">
          <mxGeometry x="800" y="2520" width="60" height="30" as="geometry" />
        </mxCell>
        <mxCell id="lqUyNGg2WOlTrXvAniyv-10" value="" style="endArrow=classic;html=1;rounded=0;entryX=0;entryY=0.5;entryDx=0;entryDy=0;" parent="1" target="lqUyNGg2WOlTrXvAniyv-2" edge="1">
          <mxGeometry width="50" height="50" relative="1" as="geometry">
            <mxPoint x="370" y="2480" as="sourcePoint" />
            <mxPoint x="520" y="2700" as="targetPoint" />
          </mxGeometry>
        </mxCell>
        <mxCell id="lqUyNGg2WOlTrXvAniyv-11" value="" style="endArrow=classic;html=1;rounded=0;entryX=0;entryY=0.5;entryDx=0;entryDy=0;" parent="1" edge="1">
          <mxGeometry width="50" height="50" relative="1" as="geometry">
            <mxPoint x="370" y="2569.5" as="sourcePoint" />
            <mxPoint x="470" y="2569.5" as="targetPoint" />
          </mxGeometry>
        </mxCell>
        <mxCell id="lqUyNGg2WOlTrXvAniyv-12" value="" style="endArrow=classic;html=1;rounded=0;entryX=0;entryY=0.5;entryDx=0;entryDy=0;" parent="1" edge="1">
          <mxGeometry width="50" height="50" relative="1" as="geometry">
            <mxPoint x="370" y="2659.5" as="sourcePoint" />
            <mxPoint x="470" y="2659.5" as="targetPoint" />
          </mxGeometry>
        </mxCell>
        <mxCell id="lqUyNGg2WOlTrXvAniyv-13" value="" style="endArrow=classic;html=1;rounded=0;entryX=0;entryY=0.5;entryDx=0;entryDy=0;" parent="1" edge="1">
          <mxGeometry width="50" height="50" relative="1" as="geometry">
            <mxPoint x="370" y="2908.5" as="sourcePoint" />
            <mxPoint x="470" y="2908.5" as="targetPoint" />
          </mxGeometry>
        </mxCell>
        <mxCell id="lqUyNGg2WOlTrXvAniyv-14" value="" style="endArrow=none;html=1;rounded=0;" parent="1" edge="1">
          <mxGeometry width="50" height="50" relative="1" as="geometry">
            <mxPoint x="370" y="2910" as="sourcePoint" />
            <mxPoint x="370" y="2480" as="targetPoint" />
          </mxGeometry>
        </mxCell>
        <mxCell id="lqUyNGg2WOlTrXvAniyv-15" value="" style="endArrow=classic;html=1;rounded=0;exitX=1;exitY=0.5;exitDx=0;exitDy=0;" parent="1" source="lqUyNGg2WOlTrXvAniyv-1" edge="1">
          <mxGeometry width="50" height="50" relative="1" as="geometry">
            <mxPoint x="470" y="2750" as="sourcePoint" />
            <mxPoint x="370" y="2695" as="targetPoint" />
          </mxGeometry>
        </mxCell>
        <mxCell id="lqUyNGg2WOlTrXvAniyv-16" value="200 websites" style="text;html=1;align=center;verticalAlign=middle;whiteSpace=wrap;rounded=0;" parent="1" vertex="1">
          <mxGeometry x="120" y="2660" width="60" height="30" as="geometry" />
        </mxCell>
        <mxCell id="lqUyNGg2WOlTrXvAniyv-17" value="CONCURRENT_LIMIT websites" style="text;html=1;align=center;verticalAlign=middle;whiteSpace=wrap;rounded=0;" parent="1" vertex="1">
          <mxGeometry x="480" y="2465" width="160" height="30" as="geometry" />
        </mxCell>
        <mxCell id="mv9SUi-fLaxSLL_trrdY-10" value="" style="rounded=1;whiteSpace=wrap;html=1;" vertex="1" parent="1">
          <mxGeometry x="745.5" y="3590" width="224.5" height="220" as="geometry" />
        </mxCell>
        <mxCell id="mv9SUi-fLaxSLL_trrdY-11" value="" style="group" vertex="1" connectable="0" parent="1">
          <mxGeometry x="700" y="3250" width="300" height="240" as="geometry" />
        </mxCell>
        <mxCell id="mv9SUi-fLaxSLL_trrdY-4" value="" style="rounded=0;whiteSpace=wrap;html=1;" vertex="1" parent="mv9SUi-fLaxSLL_trrdY-11">
          <mxGeometry width="300" height="240" as="geometry" />
        </mxCell>
        <mxCell id="mv9SUi-fLaxSLL_trrdY-5" value="console window" style="rounded=0;whiteSpace=wrap;html=1;" vertex="1" parent="mv9SUi-fLaxSLL_trrdY-11">
          <mxGeometry y="50" width="300" height="190" as="geometry" />
        </mxCell>
        <mxCell id="mv9SUi-fLaxSLL_trrdY-6" value="" style="ellipse;whiteSpace=wrap;html=1;aspect=fixed;" vertex="1" parent="mv9SUi-fLaxSLL_trrdY-11">
          <mxGeometry x="10" y="11.707317073170731" width="17.5609756097561" height="17.5609756097561" as="geometry" />
        </mxCell>
        <mxCell id="mv9SUi-fLaxSLL_trrdY-8" value="" style="ellipse;whiteSpace=wrap;html=1;" vertex="1" parent="mv9SUi-fLaxSLL_trrdY-11">
          <mxGeometry x="240" y="11.707317073170731" width="60" height="17.5609756097561" as="geometry" />
        </mxCell>
        <mxCell id="mv9SUi-fLaxSLL_trrdY-12" value="" style="group" vertex="1" connectable="0" parent="1">
          <mxGeometry x="380" y="3250" width="300" height="240" as="geometry" />
        </mxCell>
        <mxCell id="mv9SUi-fLaxSLL_trrdY-1" value="" style="rounded=0;whiteSpace=wrap;html=1;" vertex="1" parent="mv9SUi-fLaxSLL_trrdY-12">
          <mxGeometry width="300" height="240" as="geometry" />
        </mxCell>
        <mxCell id="mv9SUi-fLaxSLL_trrdY-2" value="console window" style="rounded=0;whiteSpace=wrap;html=1;" vertex="1" parent="mv9SUi-fLaxSLL_trrdY-12">
          <mxGeometry y="150" width="300" height="90" as="geometry" />
        </mxCell>
        <mxCell id="mv9SUi-fLaxSLL_trrdY-3" value="" style="ellipse;whiteSpace=wrap;html=1;aspect=fixed;" vertex="1" parent="mv9SUi-fLaxSLL_trrdY-12">
          <mxGeometry x="10" y="120" width="18" height="18" as="geometry" />
        </mxCell>
        <mxCell id="mv9SUi-fLaxSLL_trrdY-7" value="" style="ellipse;whiteSpace=wrap;html=1;" vertex="1" parent="mv9SUi-fLaxSLL_trrdY-12">
          <mxGeometry x="230" y="6" width="60" height="18" as="geometry" />
        </mxCell>
        <mxCell id="mv9SUi-fLaxSLL_trrdY-18" value="" style="group" vertex="1" connectable="0" parent="1">
          <mxGeometry x="1030" y="3250" width="300" height="240" as="geometry" />
        </mxCell>
        <mxCell id="mv9SUi-fLaxSLL_trrdY-19" value="" style="rounded=0;whiteSpace=wrap;html=1;" vertex="1" parent="mv9SUi-fLaxSLL_trrdY-18">
          <mxGeometry width="300" height="240" as="geometry" />
        </mxCell>
        <mxCell id="mv9SUi-fLaxSLL_trrdY-20" value="" style="rounded=0;whiteSpace=wrap;html=1;" vertex="1" parent="mv9SUi-fLaxSLL_trrdY-18">
          <mxGeometry y="240" width="300" as="geometry" />
        </mxCell>
        <mxCell id="mv9SUi-fLaxSLL_trrdY-21" value="" style="ellipse;whiteSpace=wrap;html=1;aspect=fixed;" vertex="1" parent="mv9SUi-fLaxSLL_trrdY-18">
          <mxGeometry x="10" y="189.99731707317073" width="17.5609756097561" height="17.5609756097561" as="geometry" />
        </mxCell>
        <mxCell id="mv9SUi-fLaxSLL_trrdY-22" value="" style="ellipse;whiteSpace=wrap;html=1;" vertex="1" parent="mv9SUi-fLaxSLL_trrdY-18">
          <mxGeometry x="230" y="189.99731707317073" width="60" height="17.5609756097561" as="geometry" />
        </mxCell>
        <mxCell id="mv9SUi-fLaxSLL_trrdY-24" value="Automate / Website Scanner" style="text;html=1;align=center;verticalAlign=middle;whiteSpace=wrap;rounded=0;" vertex="1" parent="1">
          <mxGeometry x="1118.5" y="3500" width="123" height="30" as="geometry" />
        </mxCell>
        <mxCell id="mv9SUi-fLaxSLL_trrdY-25" value="Website Scanner" style="text;html=1;align=center;verticalAlign=middle;whiteSpace=wrap;rounded=0;" vertex="1" parent="1">
          <mxGeometry x="810" y="3500" width="60" height="30" as="geometry" />
        </mxCell>
        <mxCell id="mv9SUi-fLaxSLL_trrdY-26" value="Website Scanner" style="text;html=1;align=center;verticalAlign=middle;whiteSpace=wrap;rounded=0;" vertex="1" parent="1">
          <mxGeometry x="490" y="3500" width="60" height="30" as="geometry" />
        </mxCell>
        <mxCell id="mv9SUi-fLaxSLL_trrdY-27" value="" style="rounded=1;whiteSpace=wrap;html=1;" vertex="1" parent="1">
          <mxGeometry x="480" y="4010" width="180" height="170" as="geometry" />
        </mxCell>
        <mxCell id="mv9SUi-fLaxSLL_trrdY-35" value="1440" style="text;html=1;align=center;verticalAlign=middle;whiteSpace=wrap;rounded=0;" vertex="1" parent="1">
          <mxGeometry x="570" y="4260" width="60" height="30" as="geometry" />
        </mxCell>
        <mxCell id="mv9SUi-fLaxSLL_trrdY-36" value="800" style="text;html=1;align=center;verticalAlign=middle;whiteSpace=wrap;rounded=0;" vertex="1" parent="1">
          <mxGeometry x="725" y="4140" width="60" height="30" as="geometry" />
        </mxCell>
        <mxCell id="mv9SUi-fLaxSLL_trrdY-44" value="" style="rounded=0;whiteSpace=wrap;html=1;fillColor=#FFCCCC;" vertex="1" parent="1">
          <mxGeometry x="795.5" y="4010" width="234.5" height="290" as="geometry" />
        </mxCell>
        <mxCell id="mv9SUi-fLaxSLL_trrdY-45" value="" style="rounded=1;whiteSpace=wrap;html=1;" vertex="1" parent="1">
          <mxGeometry x="795.5" y="4010" width="210" height="190" as="geometry" />
        </mxCell>
        <mxCell id="mv9SUi-fLaxSLL_trrdY-46" value="1280" style="text;html=1;align=center;verticalAlign=middle;whiteSpace=wrap;rounded=0;" vertex="1" parent="1">
          <mxGeometry x="882.75" y="4310" width="60" height="30" as="geometry" />
        </mxCell>
        <mxCell id="mv9SUi-fLaxSLL_trrdY-47" value="1024" style="text;html=1;align=center;verticalAlign=middle;whiteSpace=wrap;rounded=0;" vertex="1" parent="1">
          <mxGeometry x="1040" y="4140" width="60" height="30" as="geometry" />
        </mxCell>
        <mxCell id="mv9SUi-fLaxSLL_trrdY-48" value="" style="rounded=0;whiteSpace=wrap;html=1;fillColor=#FFCCCC;" vertex="1" parent="1">
          <mxGeometry x="1120" y="4010" width="90" height="80" as="geometry" />
        </mxCell>
        <mxCell id="mv9SUi-fLaxSLL_trrdY-50" value="320" style="text;html=1;align=center;verticalAlign=middle;whiteSpace=wrap;rounded=0;" vertex="1" parent="1">
          <mxGeometry x="1140" y="4090" width="60" height="30" as="geometry" />
        </mxCell>
        <mxCell id="mv9SUi-fLaxSLL_trrdY-51" value="256" style="text;html=1;align=center;verticalAlign=middle;whiteSpace=wrap;rounded=0;" vertex="1" parent="1">
          <mxGeometry x="1210" y="4035" width="60" height="30" as="geometry" />
        </mxCell>
        <mxCell id="mv9SUi-fLaxSLL_trrdY-53" value="user-1&lt;span style=&quot;color: rgba(0, 0, 0, 0); font-family: monospace; font-size: 0px; text-align: start; text-wrap-mode: nowrap;&quot;&gt;%3CmxGraphModel%3E%3Croot%3E%3CmxCell%20id%3D%220%22%2F%3E%3CmxCell%20id%3D%221%22%20parent%3D%220%22%2F%3E%3CmxCell%20id%3D%222%22%20value%3D%22%22%20style%3D%22rounded%3D0%3BwhiteSpace%3Dwrap%3Bhtml%3D1%3B%22%20vertex%3D%221%22%20parent%3D%221%22%3E%3CmxGeometry%20x%3D%2260%22%20y%3D%223970%22%20width%3D%22240%22%20height%3D%22270%22%20as%3D%22geometry%22%2F%3E%3C%2FmxCell%3E%3CmxCell%20id%3D%223%22%20value%3D%22%22%20style%3D%22rounded%3D1%3BwhiteSpace%3Dwrap%3Bhtml%3D1%3B%22%20vertex%3D%221%22%20parent%3D%221%22%3E%3CmxGeometry%20x%3D%2260%22%20y%3D%223970%22%20width%3D%22210%22%20height%3D%22190%22%20as%3D%22geometry%22%2F%3E%3C%2FmxCell%3E%3CmxCell%20id%3D%224%22%20value%3D%221440%22%20style%3D%22text%3Bhtml%3D1%3Balign%3Dcenter%3BverticalAlign%3Dmiddle%3BwhiteSpace%3Dwrap%3Brounded%3D0%3B%22%20vertex%3D%221%22%20parent%3D%221%22%3E%3CmxGeometry%20x%3D%22145%22%20y%3D%224260%22%20width%3D%2260%22%20height%3D%2230%22%20as%3D%22geometry%22%2F%3E%3C%2FmxCell%3E%3CmxCell%20id%3D%225%22%20value%3D%22800%22%20style%3D%22text%3Bhtml%3D1%3Balign%3Dcenter%3BverticalAlign%3Dmiddle%3BwhiteSpace%3Dwrap%3Brounded%3D0%3B%22%20vertex%3D%221%22%20parent%3D%221%22%3E%3CmxGeometry%20x%3D%22320%22%20y%3D%224100%22%20width%3D%2260%22%20height%3D%2230%22%20as%3D%22geometry%22%2F%3E%3C%2FmxCell%3E%3C%2Froot%3E%3C%2FmxGraphModel%3E&lt;/span&gt;" style="text;html=1;align=center;verticalAlign=middle;whiteSpace=wrap;rounded=0;" vertex="1" parent="1">
          <mxGeometry x="490" y="3210" width="60" height="30" as="geometry" />
        </mxCell>
        <mxCell id="mv9SUi-fLaxSLL_trrdY-54" value="user-2&lt;span style=&quot;color: rgba(0, 0, 0, 0); font-family: monospace; font-size: 0px; text-align: start; text-wrap-mode: nowrap;&quot;&gt;%3CmxGraphModel%3E%3Croot%3E%3CmxCell%20id%3D%220%22%2F%3E%3CmxCell%20id%3D%221%22%20parent%3D%220%22%2F%3E%3CmxCell%20id%3D%222%22%20value%3D%22%22%20style%3D%22rounded%3D0%3BwhiteSpace%3Dwrap%3Bhtml%3D1%3B%22%20vertex%3D%221%22%20parent%3D%221%22%3E%3CmxGeometry%20x%3D%2260%22%20y%3D%223970%22%20width%3D%22240%22%20height%3D%22270%22%20as%3D%22geometry%22%2F%3E%3C%2FmxCell%3E%3CmxCell%20id%3D%223%22%20value%3D%22%22%20style%3D%22rounded%3D1%3BwhiteSpace%3Dwrap%3Bhtml%3D1%3B%22%20vertex%3D%221%22%20parent%3D%221%22%3E%3CmxGeometry%20x%3D%2260%22%20y%3D%223970%22%20width%3D%22210%22%20height%3D%22190%22%20as%3D%22geometry%22%2F%3E%3C%2FmxCell%3E%3CmxCell%20id%3D%224%22%20value%3D%221440%22%20style%3D%22text%3Bhtml%3D1%3Balign%3Dcenter%3BverticalAlign%3Dmiddle%3BwhiteSpace%3Dwrap%3Brounded%3D0%3B%22%20vertex%3D%221%22%20parent%3D%221%22%3E%3CmxGeometry%20x%3D%22145%22%20y%3D%224260%22%20width%3D%2260%22%20height%3D%2230%22%20as%3D%22geometry%22%2F%3E%3C%2FmxCell%3E%3CmxCell%20id%3D%225%22%20value%3D%22800%22%20style%3D%22text%3Bhtml%3D1%3Balign%3Dcenter%3BverticalAlign%3Dmiddle%3BwhiteSpace%3Dwrap%3Brounded%3D0%3B%22%20vertex%3D%221%22%20parent%3D%221%22%3E%3CmxGeometry%20x%3D%22320%22%20y%3D%224100%22%20width%3D%2260%22%20height%3D%2230%22%20as%3D%22geometry%22%2F%3E%3C%2FmxCell%3E%3C%2Froot%3E%3C%2FmxGraphModel%32&lt;/span&gt;" style="text;html=1;align=center;verticalAlign=middle;whiteSpace=wrap;rounded=0;" vertex="1" parent="1">
          <mxGeometry x="810" y="3210" width="60" height="30" as="geometry" />
        </mxCell>
        <mxCell id="mv9SUi-fLaxSLL_trrdY-55" value="" style="rounded=1;whiteSpace=wrap;html=1;" vertex="1" parent="1">
          <mxGeometry x="1097.75" y="3590" width="224.5" height="220" as="geometry" />
        </mxCell>
        <mxCell id="mv9SUi-fLaxSLL_trrdY-56" value="" style="rounded=1;whiteSpace=wrap;html=1;" vertex="1" parent="1">
          <mxGeometry x="407.75" y="3590" width="224.5" height="220" as="geometry" />
        </mxCell>
        <mxCell id="mv9SUi-fLaxSLL_trrdY-57" value="" style="ellipse;whiteSpace=wrap;html=1;aspect=fixed;" vertex="1" parent="1">
          <mxGeometry x="422" y="3730" width="18" height="18" as="geometry" />
        </mxCell>
        <mxCell id="mv9SUi-fLaxSLL_trrdY-58" value="" style="ellipse;whiteSpace=wrap;html=1;" vertex="1" parent="1">
          <mxGeometry x="570" y="3630" width="60" height="18" as="geometry" />
        </mxCell>
        <mxCell id="mv9SUi-fLaxSLL_trrdY-59" value="" style="ellipse;whiteSpace=wrap;html=1;aspect=fixed;" vertex="1" parent="1">
          <mxGeometry x="755" y="3691.2173170731703" width="17.5609756097561" height="17.5609756097561" as="geometry" />
        </mxCell>
        <mxCell id="mv9SUi-fLaxSLL_trrdY-60" value="" style="ellipse;whiteSpace=wrap;html=1;" vertex="1" parent="1">
          <mxGeometry x="905" y="3691.2173170731703" width="60" height="17.5609756097561" as="geometry" />
        </mxCell>
        <mxCell id="mv9SUi-fLaxSLL_trrdY-62" value="" style="ellipse;whiteSpace=wrap;html=1;aspect=fixed;" vertex="1" parent="1">
          <mxGeometry x="1110" y="3747.997317073171" width="17.5609756097561" height="17.5609756097561" as="geometry" />
        </mxCell>
        <mxCell id="mv9SUi-fLaxSLL_trrdY-63" value="" style="ellipse;whiteSpace=wrap;html=1;" vertex="1" parent="1">
          <mxGeometry x="1260" y="3747.997317073171" width="60" height="17.5609756097561" as="geometry" />
        </mxCell>
        <mxCell id="mv9SUi-fLaxSLL_trrdY-64" value="DOMForge" style="text;html=1;align=center;verticalAlign=middle;whiteSpace=wrap;rounded=0;" vertex="1" parent="1">
          <mxGeometry x="470" y="3820" width="60" height="30" as="geometry" />
        </mxCell>
        <mxCell id="mv9SUi-fLaxSLL_trrdY-65" value="DOMForge" style="text;html=1;align=center;verticalAlign=middle;whiteSpace=wrap;rounded=0;" vertex="1" parent="1">
          <mxGeometry x="1180" y="3820" width="60" height="30" as="geometry" />
        </mxCell>
        <mxCell id="mv9SUi-fLaxSLL_trrdY-66" value="DOMForge" style="text;html=1;align=center;verticalAlign=middle;whiteSpace=wrap;rounded=0;" vertex="1" parent="1">
          <mxGeometry x="810" y="3820" width="60" height="30" as="geometry" />
        </mxCell>
        <mxCell id="mv9SUi-fLaxSLL_trrdY-67" value="user-1 / user-2&lt;span style=&quot;color: rgba(0, 0, 0, 0); font-family: monospace; font-size: 0px; text-align: start; text-wrap-mode: nowrap;&quot;&gt;%3 CmxGraphModel%3E%3Croot%3E%3CmxCell%20id%3D%220%22%2F%3E%3CmxCell%20id%3D%221%22%20parent%3D%220%22%2F%3E%3CmxCell%20id%3D%222%22%20value%3D%22%22%20style%3D%22rounded%3D0%3BwhiteSpace%3Dwrap%3Bhtml%3D1%3B%22%20vertex%3D%221%22%20parent%3D%221%22%3E%3CmxGeometry%20x%3D%2260%22%20y%3D%223970%22%20width%3D%22240%22%20height%3D%22270%22%20as%3D%22geometry%22%2F%3E%3C%2FmxCell%3E%3CmxCell%20id%3D%223%22%20value%3D%22%22%20style%3D%22rounded%3D1%3BwhiteSpace%3Dwrap%3Bhtml%3D1%3B%22%20vertex%3D%221%22%20parent%3D%221%22%3E%3CmxGeometry%20x%3D%2260%22%20y%3D%223970%22%20width%3D%22210%22%20height%3D%22190%22%20as%3D%22geometry%22%2F%3E%3C%2FmxCell%3E%3CmxCell%20id%3D%224%22%20value%3D%221440%22%20style%3D%22text%3Bhtml%3D1%3Balign%3Dcenter%3BverticalAlign%3Dmiddle%3BwhiteSpace%3Dwrap%3Brounded%3D0%3B%22%20vertex%3D%221%22%20parent%3D%221%22%3E%3CmxGeometry%20x%3D%22145%22%20y%3D%224260%22%20width%3D%2260%22%20height%3D%2230%22%20as%3D%22geometry%22%2F%3E%3C%2FmxCell%3E%3CmxCell%20id%3D%225%22%20value%3D%22800%22%20style%3D%22text%3Bhtml%3D1%3Balign%3Dcenter%3BverticalAlign%3Dmiddle%3BwhiteSpace%3Dwrap%3Brounded%3D0%3B%22%20vertex%3D%221%22%20parent%3D%221%22%3E%3CmxGeometry%20x%3D%22320%22%20y%3D%224100%22%20width%3D%2260%22%20height%3D%2230%22%20as%3D%22geometry%22%2F%3E%3C%2FmxCell%3E%3C%2Froot%3E%3C%2FmxGraphModel%3E /&lt;/span&gt;" style="text;html=1;align=center;verticalAlign=middle;whiteSpace=wrap;rounded=0;" vertex="1" parent="1">
          <mxGeometry x="1150" y="3210" width="100" height="30" as="geometry" />
        </mxCell>
        <mxCell id="mv9SUi-fLaxSLL_trrdY-69" value="" style="rounded=0;whiteSpace=wrap;html=1;" vertex="1" parent="1">
          <mxGeometry x="700" y="4630" width="215" height="80" as="geometry" />
        </mxCell>
        <mxCell id="mv9SUi-fLaxSLL_trrdY-70" value="I have text in me which is outside of viewport" style="text;html=1;align=center;verticalAlign=middle;whiteSpace=wrap;rounded=0;" vertex="1" parent="1">
          <mxGeometry x="825.5" y="4655" width="174.5" height="30" as="geometry" />
        </mxCell>
        <mxCell id="mv9SUi-fLaxSLL_trrdY-73" value="" style="rounded=1;whiteSpace=wrap;html=1;" vertex="1" parent="1">
          <mxGeometry x="1030" y="4500" width="250" height="380" as="geometry" />
        </mxCell>
        <mxCell id="mv9SUi-fLaxSLL_trrdY-74" value="" style="rounded=0;whiteSpace=wrap;html=1;" vertex="1" parent="1">
          <mxGeometry x="1050" y="4630" width="215" height="80" as="geometry" />
        </mxCell>
        <mxCell id="mv9SUi-fLaxSLL_trrdY-75" value="I have text ............" style="text;html=1;align=center;verticalAlign=middle;whiteSpace=wrap;rounded=0;" vertex="1" parent="1">
          <mxGeometry x="1175.5" y="4655" width="174.5" height="30" as="geometry" />
        </mxCell>
        <mxCell id="mv9SUi-fLaxSLL_trrdY-76" value="Zomato false positive&lt;br&gt;CASE-2" style="text;html=1;align=center;verticalAlign=middle;whiteSpace=wrap;rounded=0;" vertex="1" parent="1">
          <mxGeometry x="1095" y="4450" width="135" height="30" as="geometry" />
        </mxCell>
        <mxCell id="mv9SUi-fLaxSLL_trrdY-77" value="Correct Violation&lt;br&gt;CASE-1" style="text;html=1;align=center;verticalAlign=middle;whiteSpace=wrap;rounded=0;" vertex="1" parent="1">
          <mxGeometry x="770" y="4450" width="92.5" height="30" as="geometry" />
        </mxCell>
      </root>
    </mxGraphModel>
  </diagram>
</mxfile>
